<svg width="265" height="60" viewBox="0 0 265 60" fill="none" xmlns="http://www.w3.org/2000/svg">
<circle cx="30" cy="30" r="28.5" stroke="url(#paint0_linear_501_3)" stroke-width="3"/>
<mask id="mask0_501_3" style="mask-type:alpha" maskUnits="userSpaceOnUse" x="9" y="20" width="45" height="21">
<line x1="10.5" y1="27.5" x2="10.5" y2="32.5" stroke="black" stroke-width="3" stroke-linecap="round"/>
<line x1="16.5" y1="27.5" x2="16.5" y2="32.5" stroke="black" stroke-width="3" stroke-linecap="round"/>
<line x1="22.5" y1="24.5" x2="22.5" y2="35.5" stroke="black" stroke-width="3" stroke-linecap="round"/>
<line x1="40.5" y1="24.5" x2="40.5" y2="35.5" stroke="black" stroke-width="3" stroke-linecap="round"/>
<line x1="28.5" y1="21.5" x2="28.5" y2="39.5" stroke="black" stroke-width="3" stroke-linecap="round"/>
<line x1="34.5" y1="21.5" x2="34.5" y2="39.5" stroke="black" stroke-width="3" stroke-linecap="round"/>
<line x1="52.5" y1="27.5" x2="52.5" y2="32.5" stroke="black" stroke-width="3" stroke-linecap="round"/>
<line x1="46.5" y1="27.5" x2="46.5" y2="32.5" stroke="black" stroke-width="3" stroke-linecap="round"/>
</mask>
<g mask="url(#mask0_501_3)">
<rect x="7" y="19" width="48" height="23" fill="url(#paint1_linear_501_3)"/>
</g>
<path d="M94.564 40.21C93.184 40.21 91.944 39.97 90.844 39.49C89.764 38.99 88.914 38.31 88.294 37.45C87.674 36.57 87.354 35.56 87.334 34.42H90.244C90.344 35.4 90.744 36.23 91.444 36.91C92.164 37.57 93.204 37.9 94.564 37.9C95.864 37.9 96.884 37.58 97.624 36.94C98.384 36.28 98.764 35.44 98.764 34.42C98.764 33.62 98.544 32.97 98.104 32.47C97.664 31.97 97.114 31.59 96.454 31.33C95.794 31.07 94.904 30.79 93.784 30.49C92.404 30.13 91.294 29.77 90.454 29.41C89.634 29.05 88.924 28.49 88.324 27.73C87.744 26.95 87.454 25.91 87.454 24.61C87.454 23.47 87.744 22.46 88.324 21.58C88.904 20.7 89.714 20.02 90.754 19.54C91.814 19.06 93.024 18.82 94.384 18.82C96.344 18.82 97.944 19.31 99.184 20.29C100.444 21.27 101.154 22.57 101.314 24.19H98.314C98.214 23.39 97.794 22.69 97.054 22.09C96.314 21.47 95.334 21.16 94.114 21.16C92.974 21.16 92.044 21.46 91.324 22.06C90.604 22.64 90.244 23.46 90.244 24.52C90.244 25.28 90.454 25.9 90.874 26.38C91.314 26.86 91.844 27.23 92.464 27.49C93.104 27.73 93.994 28.01 95.134 28.33C96.514 28.71 97.624 29.09 98.464 29.47C99.304 29.83 100.024 30.4 100.624 31.18C101.224 31.94 101.524 32.98 101.524 34.3C101.524 35.32 101.254 36.28 100.714 37.18C100.174 38.08 99.374 38.81 98.314 39.37C97.254 39.93 96.004 40.21 94.564 40.21ZM112.711 40.27C111.171 40.27 109.771 39.92 108.511 39.22C107.271 38.52 106.291 37.53 105.571 36.25C104.871 34.95 104.521 33.45 104.521 31.75C104.521 30.07 104.881 28.59 105.601 27.31C106.341 26.01 107.341 25.02 108.601 24.34C109.861 23.64 111.271 23.29 112.831 23.29C114.391 23.29 115.801 23.64 117.061 24.34C118.321 25.02 119.311 26 120.031 27.28C120.771 28.56 121.141 30.05 121.141 31.75C121.141 33.45 120.761 34.95 120.001 36.25C119.261 37.53 118.251 38.52 116.971 39.22C115.691 39.92 114.271 40.27 112.711 40.27ZM112.711 37.87C113.691 37.87 114.611 37.64 115.471 37.18C116.331 36.72 117.021 36.03 117.541 35.11C118.081 34.19 118.351 33.07 118.351 31.75C118.351 30.43 118.091 29.31 117.571 28.39C117.051 27.47 116.371 26.79 115.531 26.35C114.691 25.89 113.781 25.66 112.801 25.66C111.801 25.66 110.881 25.89 110.041 26.35C109.221 26.79 108.561 27.47 108.061 28.39C107.561 29.31 107.311 30.43 107.311 31.75C107.311 33.09 107.551 34.22 108.031 35.14C108.531 36.06 109.191 36.75 110.011 37.21C110.831 37.65 111.731 37.87 112.711 37.87ZM139.311 23.56V40H136.581V37.57C136.061 38.41 135.331 39.07 134.391 39.55C133.471 40.01 132.451 40.24 131.331 40.24C130.051 40.24 128.901 39.98 127.881 39.46C126.861 38.92 126.051 38.12 125.451 37.06C124.871 36 124.581 34.71 124.581 33.19V23.56H127.281V32.83C127.281 34.45 127.691 35.7 128.511 36.58C129.331 37.44 130.451 37.87 131.871 37.87C133.331 37.87 134.481 37.42 135.321 36.52C136.161 35.62 136.581 34.31 136.581 32.59V23.56H139.311ZM151.93 23.26C153.93 23.26 155.55 23.87 156.79 25.09C158.03 26.29 158.65 28.03 158.65 30.31V40H155.95V30.7C155.95 29.06 155.54 27.81 154.72 26.95C153.9 26.07 152.78 25.63 151.36 25.63C149.92 25.63 148.77 26.08 147.91 26.98C147.07 27.88 146.65 29.19 146.65 30.91V40H143.92V23.56H146.65V25.9C147.19 25.06 147.92 24.41 148.84 23.95C149.78 23.49 150.81 23.26 151.93 23.26ZM162.09 31.72C162.09 30.04 162.43 28.57 163.11 27.31C163.79 26.03 164.72 25.04 165.9 24.34C167.1 23.64 168.44 23.29 169.92 23.29C171.2 23.29 172.39 23.59 173.49 24.19C174.59 24.77 175.43 25.54 176.01 26.5V17.8H178.77V40H176.01V36.91C175.47 37.89 174.67 38.7 173.61 39.34C172.55 39.96 171.31 40.27 169.89 40.27C168.43 40.27 167.1 39.91 165.9 39.19C164.72 38.47 163.79 37.46 163.11 36.16C162.43 34.86 162.09 33.38 162.09 31.72ZM176.01 31.75C176.01 30.51 175.76 29.43 175.26 28.51C174.76 27.59 174.08 26.89 173.22 26.41C172.38 25.91 171.45 25.66 170.43 25.66C169.41 25.66 168.48 25.9 167.64 26.38C166.8 26.86 166.13 27.56 165.63 28.48C165.13 29.4 164.88 30.48 164.88 31.72C164.88 32.98 165.13 34.08 165.63 35.02C166.13 35.94 166.8 36.65 167.64 37.15C168.48 37.63 169.41 37.87 170.43 37.87C171.45 37.87 172.38 37.63 173.22 37.15C174.08 36.65 174.76 35.94 175.26 35.02C175.76 34.08 176.01 32.99 176.01 31.75ZM205.283 23.56L200.153 40H197.333L193.373 26.95L189.413 40H186.593L181.433 23.56H184.223L188.003 37.36L192.083 23.56H194.873L198.863 37.39L202.583 23.56H205.283ZM206.973 31.72C206.973 30.04 207.313 28.57 207.993 27.31C208.673 26.03 209.603 25.04 210.783 24.34C211.983 23.64 213.313 23.29 214.773 23.29C216.213 23.29 217.463 23.6 218.523 24.22C219.583 24.84 220.373 25.62 220.893 26.56V23.56H223.653V40H220.893V36.94C220.353 37.9 219.543 38.7 218.463 39.34C217.403 39.96 216.163 40.27 214.743 40.27C213.283 40.27 211.963 39.91 210.783 39.19C209.603 38.47 208.673 37.46 207.993 36.16C207.313 34.86 206.973 33.38 206.973 31.72ZM220.893 31.75C220.893 30.51 220.643 29.43 220.143 28.51C219.643 27.59 218.963 26.89 218.103 26.41C217.263 25.91 216.333 25.66 215.313 25.66C214.293 25.66 213.363 25.9 212.523 26.38C211.683 26.86 211.013 27.56 210.513 28.48C210.013 29.4 209.763 30.48 209.763 31.72C209.763 32.98 210.013 34.08 210.513 35.02C211.013 35.94 211.683 36.65 212.523 37.15C213.363 37.63 214.293 37.87 215.313 37.87C216.333 37.87 217.263 37.63 218.103 37.15C218.963 36.65 219.643 35.94 220.143 35.02C220.643 34.08 220.893 32.99 220.893 31.75ZM234.386 37.48L239.486 23.56H242.396L235.946 40H232.766L226.316 23.56H229.256L234.386 37.48ZM260.082 31.15C260.082 31.67 260.052 32.22 259.992 32.8H246.852C246.952 34.42 247.502 35.69 248.502 36.61C249.522 37.51 250.752 37.96 252.192 37.96C253.372 37.96 254.352 37.69 255.132 37.15C255.932 36.59 256.492 35.85 256.812 34.93H259.752C259.312 36.51 258.432 37.8 257.112 38.8C255.792 39.78 254.152 40.27 252.192 40.27C250.632 40.27 249.232 39.92 247.992 39.22C246.772 38.52 245.812 37.53 245.112 36.25C244.412 34.95 244.062 33.45 244.062 31.75C244.062 30.05 244.402 28.56 245.082 27.28C245.762 26 246.712 25.02 247.932 24.34C249.172 23.64 250.592 23.29 252.192 23.29C253.752 23.29 255.132 23.63 256.332 24.31C257.532 24.99 258.452 25.93 259.092 27.13C259.752 28.31 260.082 29.65 260.082 31.15ZM257.262 30.58C257.262 29.54 257.032 28.65 256.572 27.91C256.112 27.15 255.482 26.58 254.682 26.2C253.902 25.8 253.032 25.6 252.072 25.6C250.692 25.6 249.512 26.04 248.532 26.92C247.572 27.8 247.022 29.02 246.882 30.58H257.262Z" fill="white"/>
<defs>
<linearGradient id="paint0_linear_501_3" x1="30" y1="0" x2="30" y2="60" gradientUnits="userSpaceOnUse">
<stop stop-color="#F20082"/>
<stop offset="1" stop-color="#3734C6"/>
</linearGradient>
<linearGradient id="paint1_linear_501_3" x1="31" y1="19" x2="31" y2="42" gradientUnits="userSpaceOnUse">
<stop stop-color="#3864FE"/>
<stop offset="1" stop-color="#E71B70"/>
</linearGradient>
</defs>
</svg>
